<svg version="1.1" id="Layer_1" xmlns="http://www.w3.org/2000/svg" x="0" y="0" viewBox="100 100 850 850" xml:space="preserve"><path d="M689.56 309.33c-50.3-50.35-117.18-78.1-188.44-78.13-146.83 0-266.34 119.5-266.4 266.37-.02 46.95 12.25 92.78 35.56 133.18L232.49 768.8l141.22-37.04c38.91 21.22 82.72 32.41 127.3 32.42h.11c.01 0-.01 0 0 0 146.82 0 266.33-119.51 266.39-266.39.03-71.18-27.65-138.11-77.95-188.46zM501.12 719.19h-.09c-39.73-.02-78.7-10.69-112.7-30.86l-8.08-4.8-83.8 21.98 22.37-81.71-5.27-8.38c-22.16-35.25-33.87-76-33.85-117.83.05-122.08 99.38-221.4 221.51-221.4 59.14.02 114.73 23.08 156.54 64.93 41.8 41.85 64.81 97.48 64.79 156.65-.06 122.09-99.38 221.42-221.42 221.42z" fill-rule="evenodd" clip-rule="evenodd" fill="#211f1f"/></svg>